<svg width="218" height="62" viewBox="0 0 218 62" fill="none" xmlns="http://www.w3.org/2000/svg">
<path d="M206.885 38.8109C203.986 38.8109 201.596 37.8176 199.717 35.8311C197.838 33.8445 196.898 31.3345 196.898 28.301C196.898 25.2943 197.811 22.7977 199.637 20.8112C201.462 18.7978 203.798 17.7911 206.643 17.7911C209.569 17.7911 211.892 18.7441 213.61 20.6501C215.355 22.5293 216.227 25.1735 216.227 28.5829L216.187 28.9856H200.684C200.737 30.9184 201.382 32.4754 202.616 33.6566C203.851 34.8378 205.328 35.4284 207.046 35.4284C209.408 35.4284 211.261 34.2472 212.603 31.8848L215.905 33.4956C215.019 35.16 213.784 36.462 212.2 37.4015C210.643 38.3411 208.871 38.8109 206.885 38.8109ZM200.965 25.9252H212.281C212.173 24.5561 211.61 23.4286 210.59 22.5427C209.596 21.63 208.254 21.1736 206.563 21.1736C205.167 21.1736 203.959 21.6031 202.939 22.4622C201.945 23.3212 201.288 24.4755 200.965 25.9252Z" fill="white"/>
<path d="M187.919 38.1666H184.215V18.4354H187.758V21.6568H187.919C188.295 20.6098 189.06 19.7239 190.215 18.9991C191.396 18.2474 192.55 17.8716 193.678 17.8716C194.752 17.8716 195.664 18.0327 196.416 18.3548L195.289 21.9387C194.832 21.7508 194.107 21.6568 193.114 21.6568C191.718 21.6568 190.497 22.2205 189.45 23.348C188.43 24.4755 187.919 25.791 187.919 27.2943V38.1666Z" fill="white"/>
<path d="M160.543 28.301C160.543 25.2675 161.496 22.7575 163.402 20.7709C165.335 18.7844 167.764 17.7911 170.69 17.7911C173.617 17.7911 176.033 18.7844 177.939 20.7709C179.872 22.7575 180.838 25.2675 180.838 28.301C180.838 31.3614 179.872 33.8714 177.939 35.8311C176.033 37.8176 173.617 38.8109 170.69 38.8109C167.764 38.8109 165.335 37.8176 163.402 35.8311C161.496 33.8445 160.543 31.3345 160.543 28.301ZM164.248 28.301C164.248 30.4218 164.865 32.1399 166.1 33.4553C167.335 34.7707 168.865 35.4284 170.69 35.4284C172.516 35.4284 174.046 34.7707 175.281 33.4553C176.516 32.1399 177.133 30.4218 177.133 28.301C177.133 26.2071 176.516 24.5024 175.281 23.187C174.019 21.8447 172.489 21.1736 170.69 21.1736C168.892 21.1736 167.362 21.8447 166.1 23.187C164.865 24.5024 164.248 26.2071 164.248 28.301Z" fill="white"/>
<path d="M155.042 38.4888C153.431 38.4888 152.089 37.9921 151.015 36.9989C149.968 36.0056 149.431 34.6231 149.404 32.8513V21.8179H145.941V18.4354H149.404V12.3952H153.109V18.4354H157.941V21.8179H153.109V31.6432C153.109 32.9586 153.364 33.858 153.874 34.3412C154.384 34.7976 154.961 35.0257 155.606 35.0257C155.901 35.0257 156.183 34.9989 156.451 34.9452C156.747 34.8647 157.015 34.7707 157.257 34.6633L158.424 37.9653C157.458 38.3143 156.331 38.4888 155.042 38.4888Z" fill="white"/>
<path d="M143.799 32.6902C143.799 34.4083 143.048 35.8579 141.544 37.0391C140.041 38.2203 138.148 38.8109 135.866 38.8109C133.88 38.8109 132.135 38.3009 130.632 37.2807C129.128 36.2338 128.054 34.8647 127.41 33.1734L130.712 31.764C131.195 32.9452 131.893 33.8714 132.806 34.5425C133.746 35.1868 134.766 35.509 135.866 35.509C137.048 35.509 138.027 35.2539 138.806 34.7439C139.611 34.2338 140.014 33.6298 140.014 32.9318C140.014 31.6701 139.048 30.7439 137.115 30.1533L133.732 29.3077C129.893 28.3413 127.974 26.4889 127.974 23.7507C127.974 21.9521 128.699 20.5159 130.148 19.4421C131.625 18.3414 133.504 17.7911 135.786 17.7911C137.531 17.7911 139.101 18.2072 140.497 19.0394C141.92 19.8716 142.913 20.9857 143.477 22.3816L140.175 23.7507C139.799 22.9185 139.182 22.2742 138.323 21.8179C137.491 21.3347 136.551 21.093 135.504 21.093C134.538 21.093 133.665 21.3347 132.887 21.8179C132.135 22.3011 131.759 22.8917 131.759 23.5897C131.759 24.7172 132.819 25.5225 134.94 26.0057L137.92 26.7708C141.839 27.7372 143.799 29.7104 143.799 32.6902Z" fill="white"/>
<path d="M124.094 35.67C124.094 36.4217 123.825 37.066 123.288 37.6029C122.778 38.1398 122.134 38.4083 121.355 38.4083C120.604 38.4083 119.959 38.1398 119.423 37.6029C118.886 37.066 118.617 36.4217 118.617 35.67C118.617 34.8915 118.886 34.2472 119.423 33.7372C119.959 33.2003 120.604 32.9318 121.355 32.9318C122.134 32.9318 122.778 33.2003 123.288 33.7372C123.825 34.2472 124.094 34.8915 124.094 35.67Z" fill="white"/>
<path d="M109.657 12.8784V38.1666H105.952V12.8784H97.8984V9.33481H117.71V12.8784H109.657Z" fill="white"/>
<path d="M75.0953 38.1666H71.3906V9.33481H75.9006L89.9139 31.764H90.0749L89.9139 26.2071V9.33481H93.6185V38.1666H89.7528L75.0953 14.6502H74.9342L75.0953 20.2071V38.1666Z" fill="white"/>
<path d="M65.1773 38.1666H61.4727V9.33481H65.1773V38.1666Z" fill="white"/>
<g clip-path="url(#clip0_1017_8736)">
<path d="M27.4902 29.7951L26.7018 28.5017L24.4495 24.8127C24.2377 24.4671 24.029 24.1262 23.8236 23.7917C22.6321 21.8533 21.5761 20.1378 20.9437 19.112C19.6886 16.5731 18.0496 13.9306 16.0299 12.0431C15.4501 11.433 14.7731 10.9058 14.0038 10.4885C9.63946 8.11676 3.96423 10.1269 1.3297 14.9755C-1.30483 19.8256 0.0968513 25.6792 4.46119 28.0509C5.19707 28.4507 5.97118 28.7247 6.75963 28.884C7.23111 29.0194 8.91632 29.4463 11.5843 29.459V29.4749C11.5843 29.4749 15.5122 29.5593 20.1505 29.6549C20.1537 29.6549 20.1569 29.6549 20.1585 29.6565C20.4261 29.6613 20.6952 29.6677 20.966 29.6724C21.8118 29.69 22.6735 29.7075 23.5368 29.725C23.6085 29.7266 23.6818 29.7282 23.7535 29.7298C23.8251 29.7314 23.8952 29.733 23.9685 29.7346H23.9781C24.2026 29.7393 24.4288 29.7441 24.6534 29.7489C25.2921 29.7616 25.9229 29.7744 26.5441 29.7855C26.8642 29.7919 27.1796 29.7983 27.4934 29.8046C27.4934 29.8015 27.4902 29.7983 27.487 29.7951H27.4902ZM13.0178 26.1555L12.0335 26.181C9.90864 26.181 8.55793 25.821 8.20751 25.7143C7.67551 25.598 7.15147 25.4069 6.64973 25.1345C3.67752 23.5194 2.63263 19.6982 4.31783 16.5985C6.00145 13.5005 9.77485 12.2963 12.7471 13.9114C13.2711 14.1966 13.7346 14.5502 14.1344 14.9547C16.444 17.0509 18.0878 20.4818 18.9718 22.6815C19.4704 23.9208 19.7268 24.7681 19.7268 24.7681C17.1114 25.6967 14.84 26.0631 13.0178 26.1555ZM23.7184 27.0634C23.7184 27.0634 23.7121 27.0586 23.7105 27.0554C23.7136 27.0554 23.7168 27.0538 23.7216 27.0522C23.7216 27.0554 23.7184 27.0586 23.7184 27.0634Z" fill="url(#paint0_angular_1017_8736)"/>
<path d="M46.249 15.4533C43.6145 10.6047 37.9392 8.59457 33.5749 10.9663C32.8056 11.3836 32.1286 11.9108 31.5488 12.5209C29.9911 13.9767 28.6579 15.8833 27.554 17.8441C27.554 17.8489 27.5493 17.8521 27.5461 17.8568C27.3995 18.0894 26.3148 19.8176 24.8654 22.1304L24.8622 22.1336L23.8252 23.7885V23.7917L23.2566 24.6964L22.6768 25.6234C22.6163 25.7206 22.5558 25.8178 22.4936 25.9149H22.4952C22.4379 26.0073 22.379 26.0997 22.32 26.1937C22.2627 26.2861 22.2053 26.38 22.1448 26.474C22.0301 26.6604 21.9123 26.8467 21.7944 27.0347C21.7307 27.1382 21.667 27.2402 21.6017 27.3437C21.4838 27.5332 21.3643 27.7244 21.2465 27.9139C20.8801 28.5017 20.5154 29.0862 20.1602 29.6565C20.4278 29.6612 20.6969 29.6676 20.9677 29.6724C21.8135 29.6899 22.6752 29.7074 23.5385 29.725C23.6102 29.7266 23.6835 29.7281 23.7552 29.7297C23.8268 29.7313 23.8969 29.7329 23.9702 29.7345H23.9797C24.2043 29.7393 24.4305 29.7441 24.6551 29.7489C25.2938 29.7616 25.9246 29.7743 26.5458 29.7855C26.5107 29.7489 26.4757 29.7106 26.4407 29.674C26.4773 29.7122 26.5123 29.7489 26.5474 29.7855C26.8675 29.7919 27.1829 29.7982 27.4967 29.8046C31.1698 29.8779 34.2089 29.9336 34.8699 29.9336C34.924 29.9336 34.9686 29.9304 35.0069 29.9241C38.2467 30.0276 40.2919 29.5131 40.8175 29.3618C41.6059 29.2025 42.38 28.9286 43.1159 28.5288C47.4803 26.157 48.8819 20.3034 46.2474 15.4533H46.249ZM34.1133 28.6562C34.1133 28.6562 34.1181 28.6403 34.1197 28.6307C34.1197 28.6403 34.1149 28.6482 34.1117 28.6562H34.1133ZM40.929 25.6123C40.4288 25.8847 39.9048 26.0758 39.3712 26.1921C38.6958 26.3976 34.3299 27.546 27.8519 25.2459C27.8519 25.2459 29.835 18.7074 33.4443 15.4326C33.8441 15.028 34.3076 14.6744 34.8317 14.3893C37.8039 12.7741 41.5788 13.9783 43.2625 17.0764C44.9461 20.176 43.9012 23.9972 40.929 25.6123Z" fill="url(#paint1_angular_1017_8736)"/>
<path d="M33.2983 41.2873C33.1789 40.7059 32.6054 38.3374 30.6526 35.1326C30.4153 34.642 29.1076 32.4567 27.4989 29.8062C27.4989 29.8062 27.4957 29.7983 27.4925 29.7951L26.704 28.5017L24.4518 24.8127C24.2399 24.4671 24.0313 24.1262 23.8258 23.7917L23.2588 24.6964L22.679 25.6235C22.6184 25.7206 22.5579 25.8178 22.4958 25.915H22.4974C22.4401 26.0073 22.3811 26.0997 22.3222 26.1937C22.2648 26.2861 22.2075 26.3801 22.147 26.474C22.0323 26.6604 21.9144 26.8468 21.7965 27.0347C21.7328 27.1382 21.6691 27.2402 21.6038 27.3437C21.4859 27.5333 21.3665 27.7244 21.2486 27.9139C20.8823 28.5017 20.5175 29.0863 20.1623 29.6565C19.6335 30.5039 19.1254 31.3226 18.6555 32.0792C17.3 34.2645 16.2774 35.9354 16.0672 36.3304C15.2198 37.8102 14.5078 39.3648 14.0825 40.9146C13.8117 41.711 13.6604 42.5552 13.6493 43.4312C13.5792 48.3977 17.9977 52.4864 23.5152 52.5629C29.0343 52.6409 33.5643 48.6764 33.6344 43.71C33.6456 42.8722 33.5293 42.0598 33.3015 41.2873H33.2983ZM29.998 35.9752C29.998 35.9752 30.0107 35.9641 30.0155 35.9593C30.0107 35.9641 30.006 35.9689 30.0012 35.9752C29.9996 35.9752 29.9996 35.9768 29.998 35.9768V35.9752ZM17.5835 35.4958L17.566 35.4799C17.5724 35.4846 17.5788 35.491 17.5851 35.4958H17.5835ZM23.5598 49.1622C20.0333 49.1128 17.2124 46.3318 17.2602 42.9502C17.2682 42.3545 17.3653 41.7795 17.5389 41.2363C17.9817 39.5224 18.9056 37.799 19.9027 36.2986C19.9027 36.2986 19.9075 36.2906 19.917 36.2763C19.9202 36.2715 19.9234 36.2667 19.9266 36.2603C19.9345 36.2492 19.9425 36.2349 19.9537 36.2189C20.6019 35.2553 21.2725 34.3888 21.8634 33.6768C22.8621 32.4742 23.6251 31.7224 23.6251 31.7224C28.6728 36.3862 29.6874 40.7856 29.8196 41.4784C29.9645 42.0041 30.0394 42.5584 30.0314 43.1286C29.9837 46.5102 27.0863 49.2116 23.5598 49.1622Z" fill="url(#paint2_angular_1017_8736)"/>
</g>
<path d="M61 49.5635V41.203H66.4597V42.0152H61.8391V44.9414H64.8577V45.7416H61.8391V48.7514H66.5033V49.5635H61Z" fill="white"/>
<path d="M67.8896 49.5635V43.5798H68.696V44.2367C69.1101 43.7191 69.6441 43.4604 70.2979 43.4604C70.683 43.4604 71.0244 43.5599 71.3223 43.759C71.6202 43.9501 71.8527 44.2128 72.0198 44.5472C72.245 44.181 72.5138 43.9102 72.8262 43.7351C73.1386 43.5519 73.4946 43.4604 73.8941 43.4604C74.2937 43.4604 74.6424 43.5599 74.9403 43.759C75.2382 43.9501 75.4707 44.2208 75.6378 44.5711C75.8121 44.9135 75.8993 45.3156 75.8993 45.7774V49.5635H75.1038V45.9566C75.1038 45.4231 74.9766 45.0051 74.7224 44.7025C74.4681 44.392 74.123 44.2367 73.6871 44.2367C73.3892 44.2367 73.1168 44.3203 72.8698 44.4875C72.6228 44.6468 72.4121 44.8896 72.2377 45.2161C72.2522 45.3037 72.2631 45.3952 72.2704 45.4908C72.2849 45.5784 72.2922 45.6739 72.2922 45.7774V49.5635H71.4967V45.9566C71.4967 45.4231 71.3695 45.0051 71.1153 44.7025C70.861 44.392 70.5195 44.2367 70.0909 44.2367C69.8003 44.2367 69.5351 44.3123 69.2954 44.4636C69.0629 44.6069 68.8631 44.8219 68.696 45.1086V49.5635H67.8896Z" fill="white"/>
<path d="M77.5816 52V43.5798H78.3771V44.2248C78.8494 43.7311 79.4378 43.4843 80.1425 43.4843C80.6584 43.4843 81.1233 43.6236 81.5374 43.9023C81.9515 44.173 82.2785 44.5393 82.5182 45.0011C82.7652 45.4629 82.8887 45.9844 82.8887 46.5657C82.8887 47.1469 82.7652 47.6725 82.5182 48.1422C82.2785 48.6041 81.9515 48.9743 81.5374 49.253C81.1233 49.5237 80.6547 49.6591 80.1317 49.6591C79.812 49.6591 79.5032 49.5993 79.2054 49.4799C78.9075 49.3605 78.635 49.1893 78.388 48.9663V52H77.5816ZM80.0663 48.8827C80.4513 48.8827 80.7964 48.7832 81.1015 48.5841C81.4067 48.3771 81.6464 48.1024 81.8208 47.76C82.0024 47.4097 82.0932 47.0156 82.0932 46.5776C82.0932 46.1397 82.0024 45.7456 81.8208 45.3952C81.6464 45.0449 81.4067 44.7702 81.1015 44.5711C80.7964 44.3641 80.4513 44.2606 80.0663 44.2606C79.7248 44.2606 79.4051 44.3362 79.1073 44.4875C78.8167 44.6308 78.5769 44.8339 78.388 45.0966V48.0586C78.5769 48.3134 78.8203 48.5165 79.1182 48.6678C79.416 48.8111 79.7321 48.8827 80.0663 48.8827Z" fill="white"/>
<path d="M86.8756 49.683C86.3597 49.683 85.8875 49.5476 85.4589 49.2769C85.0375 48.9982 84.7033 48.624 84.4563 48.1542C84.2093 47.6844 84.0858 47.1589 84.0858 46.5776C84.0858 45.9964 84.2093 45.4709 84.4563 45.0011C84.7033 44.5313 85.0375 44.1611 85.4589 43.8903C85.8875 43.6117 86.3597 43.4723 86.8756 43.4723C87.3986 43.4723 87.8709 43.6117 88.2922 43.8903C88.7136 44.1611 89.0478 44.5313 89.2948 45.0011C89.5418 45.4709 89.6653 45.9964 89.6653 46.5776C89.6653 47.1589 89.5418 47.6844 89.2948 48.1542C89.0478 48.624 88.7136 48.9982 88.2922 49.2769C87.8709 49.5476 87.3986 49.683 86.8756 49.683ZM86.8756 48.8947C87.2461 48.8947 87.5803 48.7912 87.8781 48.5841C88.1833 48.3771 88.423 48.0984 88.5974 47.7481C88.779 47.3978 88.8698 47.0076 88.8698 46.5776C88.8698 46.1397 88.779 45.7495 88.5974 45.4072C88.423 45.0568 88.1833 44.7781 87.8781 44.5711C87.5803 44.3641 87.2461 44.2606 86.8756 44.2606C86.505 44.2606 86.1672 44.3641 85.8621 44.5711C85.5642 44.7781 85.3245 45.0568 85.1428 45.4072C84.9685 45.7495 84.8813 46.1397 84.8813 46.5776C84.8813 47.0076 84.9685 47.3978 85.1428 47.7481C85.3245 48.0984 85.5642 48.3771 85.8621 48.5841C86.1672 48.7912 86.505 48.8947 86.8756 48.8947Z" fill="white"/>
<path d="M93.6081 49.6591C93.0995 49.6591 92.6345 49.5237 92.2132 49.253C91.799 48.9743 91.4685 48.6041 91.2215 48.1422C90.9817 47.6725 90.8619 47.1469 90.8619 46.5657C90.8619 45.9844 90.9817 45.4629 91.2215 45.0011C91.4685 44.5393 91.799 44.173 92.2132 43.9023C92.6345 43.6236 93.1031 43.4843 93.6189 43.4843C93.9386 43.4843 94.2474 43.544 94.5452 43.6634C94.8431 43.7749 95.1156 43.9421 95.3626 44.165V41.203L96.169 41V49.5635H95.3735V48.9305C94.894 49.4162 94.3055 49.6591 93.6081 49.6591ZM93.6843 48.8827C94.0258 48.8827 94.3418 48.8111 94.6324 48.6678C94.9303 48.5165 95.1737 48.3094 95.3626 48.0467V45.0847C95.1737 44.8299 94.9303 44.6308 94.6324 44.4875C94.3418 44.3362 94.0258 44.2606 93.6843 44.2606C93.3066 44.2606 92.9615 44.3601 92.6491 44.5592C92.3439 44.7582 92.1005 45.0329 91.9189 45.3833C91.7446 45.7257 91.6574 46.1158 91.6574 46.5537C91.6574 46.9917 91.7446 47.3858 91.9189 47.7362C92.1005 48.0865 92.3439 48.3652 92.6491 48.5722C92.9615 48.7792 93.3066 48.8827 93.6843 48.8827Z" fill="white"/>
<path d="M100.428 49.671C99.9052 49.671 99.4293 49.5357 99.0007 49.2649C98.5793 48.9862 98.2415 48.612 97.9872 48.1422C97.7402 47.6725 97.6167 47.1469 97.6167 46.5657C97.6167 45.9924 97.7365 45.4748 97.9763 45.013C98.216 44.5432 98.5393 44.173 98.9462 43.9023C99.353 43.6236 99.8071 43.4843 100.308 43.4843C100.795 43.4843 101.231 43.6236 101.616 43.9023C102.008 44.173 102.317 44.5432 102.542 45.013C102.775 45.4748 102.891 45.9924 102.891 46.5657V46.8404H98.4122C98.4558 47.2305 98.5684 47.5809 98.75 47.8914C98.9389 48.202 99.1823 48.4488 99.4802 48.6319C99.778 48.8071 100.105 48.8947 100.461 48.8947C100.744 48.8947 101.02 48.8469 101.289 48.7514C101.558 48.6558 101.783 48.5204 101.965 48.3453L102.466 48.9305C102.161 49.1773 101.841 49.3645 101.507 49.4919C101.18 49.6113 100.821 49.671 100.428 49.671ZM98.434 46.1357H102.085C102.041 45.7774 101.932 45.4589 101.758 45.1802C101.591 44.8936 101.38 44.6706 101.126 44.5114C100.871 44.3442 100.592 44.2606 100.287 44.2606C99.9742 44.2606 99.6872 44.3402 99.4257 44.4995C99.1641 44.6587 98.9462 44.8817 98.7718 45.1683C98.5974 45.447 98.4848 45.7695 98.434 46.1357Z" fill="white"/>
<path d="M104.345 49.5635V43.5798H105.152V44.4278C105.319 44.1173 105.53 43.8784 105.784 43.7112C106.045 43.536 106.343 43.4484 106.677 43.4484C106.866 43.4484 107.037 43.4763 107.19 43.532V44.3442C107.095 44.3044 107.001 44.2765 106.906 44.2606C106.812 44.2447 106.717 44.2367 106.623 44.2367C106.289 44.2367 105.995 44.3442 105.74 44.5592C105.493 44.7662 105.297 45.0688 105.152 45.4669V49.5635H104.345Z" fill="white"/>
<path d="M109.885 49.671C109.485 49.671 109.133 49.5954 108.828 49.4441C108.53 49.2928 108.294 49.0818 108.119 48.8111C107.952 48.5404 107.869 48.2258 107.869 47.8675C107.869 47.3022 108.065 46.8563 108.457 46.5299C108.85 46.2034 109.38 46.0402 110.048 46.0402C110.637 46.0402 111.171 46.1755 111.65 46.4463V45.658C111.65 45.1802 111.527 44.8219 111.28 44.5831C111.033 44.3362 110.673 44.2128 110.201 44.2128C109.932 44.2128 109.66 44.2566 109.384 44.3442C109.115 44.4238 108.817 44.5552 108.49 44.7383L108.185 44.0575C108.577 43.8505 108.94 43.6992 109.275 43.6037C109.609 43.5081 109.943 43.4604 110.277 43.4604C110.967 43.4604 111.498 43.6395 111.868 43.9978C112.246 44.3561 112.435 44.8697 112.435 45.5385V49.5635H111.65V48.9783C111.403 49.2092 111.131 49.3844 110.833 49.5038C110.542 49.6153 110.226 49.671 109.885 49.671ZM108.642 47.8436C108.642 48.1781 108.77 48.4528 109.024 48.6678C109.285 48.8748 109.62 48.9783 110.026 48.9783C110.353 48.9783 110.651 48.9225 110.92 48.8111C111.189 48.6996 111.432 48.5244 111.65 48.2856V47.1629C111.425 46.9957 111.185 46.8762 110.931 46.8046C110.677 46.7249 110.39 46.6851 110.07 46.6851C109.634 46.6851 109.285 46.7926 109.024 47.0076C108.77 47.2146 108.642 47.4933 108.642 47.8436Z" fill="white"/>
<path d="M114.109 49.5635V43.5798H114.915V44.2845C115.344 43.7351 115.918 43.4604 116.637 43.4604C117.051 43.4604 117.415 43.5599 117.727 43.759C118.047 43.9501 118.294 44.2208 118.468 44.5711C118.65 44.9135 118.74 45.3156 118.74 45.7774V49.5635H117.945V45.9566C117.945 45.4231 117.807 45.0051 117.531 44.7025C117.262 44.392 116.891 44.2367 116.419 44.2367C116.092 44.2367 115.802 44.3163 115.547 44.4756C115.293 44.6348 115.082 44.8617 114.915 45.1564V49.5635H114.109Z" fill="white"/>
<path d="M122.912 49.6591C122.404 49.6591 121.939 49.5237 121.517 49.253C121.103 48.9743 120.773 48.6041 120.526 48.1422C120.286 47.6725 120.166 47.1469 120.166 46.5657C120.166 45.9844 120.286 45.4629 120.526 45.0011C120.773 44.5393 121.103 44.173 121.517 43.9023C121.939 43.6236 122.407 43.4843 122.923 43.4843C123.243 43.4843 123.552 43.544 123.85 43.6634C124.147 43.7749 124.42 43.9421 124.667 44.165V41.203L125.473 41V49.5635H124.678V48.9305C124.198 49.4162 123.61 49.6591 122.912 49.6591ZM122.989 48.8827C123.33 48.8827 123.646 48.8111 123.937 48.6678C124.235 48.5165 124.478 48.3094 124.667 48.0467V45.0847C124.478 44.8299 124.235 44.6308 123.937 44.4875C123.646 44.3362 123.33 44.2606 122.989 44.2606C122.611 44.2606 122.266 44.3601 121.953 44.5592C121.648 44.7582 121.405 45.0329 121.223 45.3833C121.049 45.7257 120.962 46.1158 120.962 46.5537C120.962 46.9917 121.049 47.3858 121.223 47.7362C121.405 48.0865 121.648 48.3652 121.953 48.5722C122.266 48.7792 122.611 48.8827 122.989 48.8827Z" fill="white"/>
<path d="M129.711 49.683C129.195 49.683 128.723 49.5476 128.294 49.2769C127.873 48.9982 127.538 48.624 127.291 48.1542C127.044 47.6844 126.921 47.1589 126.921 46.5776C126.921 45.9964 127.044 45.4709 127.291 45.0011C127.538 44.5313 127.873 44.1611 128.294 43.8903C128.723 43.6117 129.195 43.4723 129.711 43.4723C130.234 43.4723 130.706 43.6117 131.127 43.8903C131.549 44.1611 131.883 44.5313 132.13 45.0011C132.377 45.4709 132.501 45.9964 132.501 46.5776C132.501 47.1589 132.377 47.6844 132.13 48.1542C131.883 48.624 131.549 48.9982 131.127 49.2769C130.706 49.5476 130.234 49.683 129.711 49.683ZM129.711 48.8947C130.081 48.8947 130.415 48.7912 130.713 48.5841C131.018 48.3771 131.258 48.0984 131.433 47.7481C131.614 47.3978 131.705 47.0076 131.705 46.5776C131.705 46.1397 131.614 45.7495 131.433 45.4072C131.258 45.0568 131.018 44.7781 130.713 44.5711C130.415 44.3641 130.081 44.2606 129.711 44.2606C129.34 44.2606 129.002 44.3641 128.697 44.5711C128.399 44.7781 128.16 45.0568 127.978 45.4072C127.804 45.7495 127.716 46.1397 127.716 46.5776C127.716 47.0076 127.804 47.3978 127.978 47.7481C128.16 48.0984 128.399 48.3771 128.697 48.5841C129.002 48.7912 129.34 48.8947 129.711 48.8947Z" fill="white"/>
<path d="M139.177 49.671C138.654 49.671 138.178 49.5357 137.749 49.2649C137.328 48.9862 136.99 48.612 136.736 48.1422C136.489 47.6725 136.365 47.1469 136.365 46.5657C136.365 45.9924 136.485 45.4748 136.725 45.013C136.965 44.5432 137.288 44.173 137.695 43.9023C138.102 43.6236 138.556 43.4843 139.057 43.4843C139.544 43.4843 139.98 43.6236 140.365 43.9023C140.757 44.173 141.066 44.5432 141.291 45.013C141.523 45.4748 141.64 45.9924 141.64 46.5657V46.8404H137.161C137.204 47.2305 137.317 47.5809 137.499 47.8914C137.687 48.202 137.931 48.4488 138.229 48.6319C138.527 48.8071 138.854 48.8947 139.21 48.8947C139.493 48.8947 139.769 48.8469 140.038 48.7514C140.307 48.6558 140.532 48.5204 140.713 48.3453L141.215 48.9305C140.91 49.1773 140.59 49.3645 140.256 49.4919C139.929 49.6113 139.569 49.671 139.177 49.671ZM137.183 46.1357H140.833C140.79 45.7774 140.681 45.4589 140.506 45.1802C140.339 44.8936 140.129 44.6706 139.874 44.5114C139.62 44.3442 139.34 44.2606 139.035 44.2606C138.723 44.2606 138.436 44.3402 138.174 44.4995C137.913 44.6587 137.695 44.8817 137.52 45.1683C137.346 45.447 137.233 45.7695 137.183 46.1357Z" fill="white"/>
<path d="M143.094 49.5635V43.5798H143.9V44.2367C144.315 43.7191 144.849 43.4604 145.502 43.4604C145.887 43.4604 146.229 43.5599 146.527 43.759C146.825 43.9501 147.057 44.2128 147.224 44.5472C147.449 44.181 147.718 43.9102 148.031 43.7351C148.343 43.5519 148.699 43.4604 149.099 43.4604C149.498 43.4604 149.847 43.5599 150.145 43.759C150.443 43.9501 150.675 44.2208 150.842 44.5711C151.017 44.9135 151.104 45.3156 151.104 45.7774V49.5635H150.308V45.9566C150.308 45.4231 150.181 45.0051 149.927 44.7025C149.673 44.392 149.327 44.2367 148.892 44.2367C148.594 44.2367 148.321 44.3203 148.074 44.4875C147.827 44.6468 147.617 44.8896 147.442 45.2161C147.457 45.3037 147.468 45.3952 147.475 45.4908C147.489 45.5784 147.497 45.6739 147.497 45.7774V49.5635H146.701V45.9566C146.701 45.4231 146.574 45.0051 146.32 44.7025C146.065 44.392 145.724 44.2367 145.295 44.2367C145.005 44.2367 144.74 44.3123 144.5 44.4636C144.267 44.6069 144.068 44.8219 143.9 45.1086V49.5635H143.094Z" fill="white"/>
<path d="M152.786 52V43.5798H153.582V44.2248C154.054 43.7311 154.642 43.4843 155.347 43.4843C155.863 43.4843 156.328 43.6236 156.742 43.9023C157.156 44.173 157.483 44.5393 157.723 45.0011C157.97 45.4629 158.093 45.9844 158.093 46.5657C158.093 47.1469 157.97 47.6725 157.723 48.1422C157.483 48.6041 157.156 48.9743 156.742 49.253C156.328 49.5237 155.859 49.6591 155.336 49.6591C155.016 49.6591 154.708 49.5993 154.41 49.4799C154.112 49.3605 153.839 49.1893 153.592 48.9663V52H152.786ZM155.271 48.8827C155.656 48.8827 156.001 48.7832 156.306 48.5841C156.611 48.3771 156.851 48.1024 157.025 47.76C157.207 47.4097 157.298 47.0156 157.298 46.5776C157.298 46.1397 157.207 45.7456 157.025 45.3952C156.851 45.0449 156.611 44.7702 156.306 44.5711C156.001 44.3641 155.656 44.2606 155.271 44.2606C154.929 44.2606 154.61 44.3362 154.312 44.4875C154.021 44.6308 153.781 44.8339 153.592 45.0966V48.0586C153.781 48.3134 154.025 48.5165 154.323 48.6678C154.62 48.8111 154.936 48.8827 155.271 48.8827Z" fill="white"/>
<path d="M159.541 49.5635V43.5798H160.347V44.4278C160.514 44.1173 160.725 43.8784 160.979 43.7112C161.241 43.536 161.539 43.4484 161.873 43.4484C162.062 43.4484 162.233 43.4763 162.385 43.532V44.3442C162.291 44.3044 162.196 44.2765 162.102 44.2606C162.007 44.2447 161.913 44.2367 161.818 44.2367C161.484 44.2367 161.19 44.3442 160.936 44.5592C160.689 44.7662 160.493 45.0688 160.347 45.4669V49.5635H159.541Z" fill="white"/>
<path d="M165.813 49.671C165.29 49.671 164.814 49.5357 164.385 49.2649C163.964 48.9862 163.626 48.612 163.372 48.1422C163.125 47.6725 163.001 47.1469 163.001 46.5657C163.001 45.9924 163.121 45.4748 163.361 45.013C163.601 44.5432 163.924 44.173 164.331 43.9023C164.738 43.6236 165.192 43.4843 165.693 43.4843C166.18 43.4843 166.616 43.6236 167.001 43.9023C167.393 44.173 167.702 44.5432 167.927 45.013C168.16 45.4748 168.276 45.9924 168.276 46.5657V46.8404H163.797C163.84 47.2305 163.953 47.5809 164.135 47.8914C164.324 48.202 164.567 48.4488 164.865 48.6319C165.163 48.8071 165.49 48.8947 165.846 48.8947C166.129 48.8947 166.405 48.8469 166.674 48.7514C166.943 48.6558 167.168 48.5204 167.349 48.3453L167.851 48.9305C167.546 49.1773 167.226 49.3645 166.892 49.4919C166.565 49.6113 166.205 49.671 165.813 49.671ZM163.819 46.1357H167.469C167.426 45.7774 167.317 45.4589 167.142 45.1802C166.975 44.8936 166.765 44.6706 166.51 44.5114C166.256 44.3442 165.976 44.2606 165.671 44.2606C165.359 44.2606 165.072 44.3402 164.81 44.4995C164.549 44.6587 164.331 44.8817 164.156 45.1683C163.982 45.447 163.869 45.7695 163.819 46.1357Z" fill="white"/>
<path d="M169.73 49.5635V43.5798H170.537V44.2845C170.965 43.7351 171.539 43.4604 172.258 43.4604C172.672 43.4604 173.036 43.5599 173.348 43.759C173.668 43.9501 173.915 44.2208 174.089 44.5711C174.271 44.9135 174.362 45.3156 174.362 45.7774V49.5635H173.566V45.9566C173.566 45.4231 173.428 45.0051 173.152 44.7025C172.883 44.392 172.513 44.2367 172.04 44.2367C171.713 44.2367 171.423 44.3163 171.169 44.4756C170.914 44.6348 170.704 44.8617 170.537 45.1564V49.5635H169.73Z" fill="white"/>
<path d="M178.533 49.6591C178.025 49.6591 177.56 49.5237 177.139 49.253C176.724 48.9743 176.394 48.6041 176.147 48.1422C175.907 47.6725 175.787 47.1469 175.787 46.5657C175.787 45.9844 175.907 45.4629 176.147 45.0011C176.394 44.5393 176.724 44.173 177.139 43.9023C177.56 43.6236 178.029 43.4843 178.544 43.4843C178.864 43.4843 179.173 43.544 179.471 43.6634C179.769 43.7749 180.041 43.9421 180.288 44.165V41.203L181.094 41V49.5635H180.299V48.9305C179.819 49.4162 179.231 49.6591 178.533 49.6591ZM178.61 48.8827C178.951 48.8827 179.267 48.8111 179.558 48.6678C179.856 48.5165 180.099 48.3094 180.288 48.0467V45.0847C180.099 44.8299 179.856 44.6308 179.558 44.4875C179.267 44.3362 178.951 44.2606 178.61 44.2606C178.232 44.2606 177.887 44.3601 177.574 44.5592C177.269 44.7582 177.026 45.0329 176.844 45.3833C176.67 45.7257 176.583 46.1158 176.583 46.5537C176.583 46.9917 176.67 47.3858 176.844 47.7362C177.026 48.0865 177.269 48.3652 177.574 48.5722C177.887 48.7792 178.232 48.8827 178.61 48.8827Z" fill="white"/>
<path d="M185.354 49.671C184.831 49.671 184.355 49.5357 183.926 49.2649C183.505 48.9862 183.167 48.612 182.913 48.1422C182.666 47.6725 182.542 47.1469 182.542 46.5657C182.542 45.9924 182.662 45.4748 182.902 45.013C183.141 44.5432 183.465 44.173 183.872 43.9023C184.278 43.6236 184.732 43.4843 185.234 43.4843C185.721 43.4843 186.156 43.6236 186.541 43.9023C186.934 44.173 187.243 44.5432 187.468 45.013C187.7 45.4748 187.816 45.9924 187.816 46.5657V46.8404H183.338C183.381 47.2305 183.494 47.5809 183.675 47.8914C183.864 48.202 184.108 48.4488 184.406 48.6319C184.703 48.8071 185.03 48.8947 185.386 48.8947C185.67 48.8947 185.946 48.8469 186.215 48.7514C186.483 48.6558 186.709 48.5204 186.89 48.3453L187.391 48.9305C187.086 49.1773 186.767 49.3645 186.433 49.4919C186.106 49.6113 185.746 49.671 185.354 49.671ZM183.359 46.1357H187.01C186.966 45.7774 186.858 45.4589 186.683 45.1802C186.516 44.8936 186.305 44.6706 186.051 44.5114C185.797 44.3442 185.517 44.2606 185.212 44.2606C184.9 44.2606 184.613 44.3402 184.351 44.4995C184.09 44.6587 183.872 44.8817 183.697 45.1683C183.523 45.447 183.41 45.7695 183.359 46.1357Z" fill="white"/>
<path d="M191.766 49.6591C191.258 49.6591 190.793 49.5237 190.371 49.253C189.957 48.9743 189.627 48.6041 189.38 48.1422C189.14 47.6725 189.02 47.1469 189.02 46.5657C189.02 45.9844 189.14 45.4629 189.38 45.0011C189.627 44.5393 189.957 44.173 190.371 43.9023C190.793 43.6236 191.261 43.4843 191.777 43.4843C192.097 43.4843 192.406 43.544 192.704 43.6634C193.001 43.7749 193.274 43.9421 193.521 44.165V41.203L194.327 41V49.5635H193.532V48.9305C193.052 49.4162 192.464 49.6591 191.766 49.6591ZM191.843 48.8827C192.184 48.8827 192.5 48.8111 192.791 48.6678C193.089 48.5165 193.332 48.3094 193.521 48.0467V45.0847C193.332 44.8299 193.089 44.6308 192.791 44.4875C192.5 44.3362 192.184 44.2606 191.843 44.2606C191.465 44.2606 191.12 44.3601 190.807 44.5592C190.502 44.7582 190.259 45.0329 190.077 45.3833C189.903 45.7257 189.816 46.1158 189.816 46.5537C189.816 46.9917 189.903 47.3858 190.077 47.7362C190.259 48.0865 190.502 48.3652 190.807 48.5722C191.12 48.7792 191.465 48.8827 191.843 48.8827Z" fill="white"/>
<path d="M198.565 49.683C198.049 49.683 197.577 49.5476 197.148 49.2769C196.727 48.9982 196.393 48.624 196.146 48.1542C195.898 47.6844 195.775 47.1589 195.775 46.5776C195.775 45.9964 195.898 45.4709 196.146 45.0011C196.393 44.5313 196.727 44.1611 197.148 43.8903C197.577 43.6117 198.049 43.4723 198.565 43.4723C199.088 43.4723 199.56 43.6117 199.981 43.8903C200.403 44.1611 200.737 44.5313 200.984 45.0011C201.231 45.4709 201.355 45.9964 201.355 46.5776C201.355 47.1589 201.231 47.6844 200.984 48.1542C200.737 48.624 200.403 48.9982 199.981 49.2769C199.56 49.5476 199.088 49.683 198.565 49.683ZM198.565 48.8947C198.935 48.8947 199.269 48.7912 199.567 48.5841C199.872 48.3771 200.112 48.0984 200.287 47.7481C200.468 47.3978 200.559 47.0076 200.559 46.5776C200.559 46.1397 200.468 45.7495 200.287 45.4072C200.112 45.0568 199.872 44.7781 199.567 44.5711C199.269 44.3641 198.935 44.2606 198.565 44.2606C198.194 44.2606 197.856 44.3641 197.551 44.5711C197.253 44.7781 197.014 45.0568 196.832 45.4072C196.658 45.7495 196.571 46.1397 196.571 46.5776C196.571 47.0076 196.658 47.3978 196.832 47.7481C197.014 48.0984 197.253 48.3771 197.551 48.5841C197.856 48.7912 198.194 48.8947 198.565 48.8947Z" fill="white"/>
<path d="M202.802 49.5635V43.5798H203.608V44.4278C203.775 44.1173 203.986 43.8784 204.24 43.7112C204.502 43.536 204.8 43.4484 205.134 43.4484C205.323 43.4484 205.493 43.4763 205.646 43.532V44.3442C205.552 44.3044 205.457 44.2765 205.363 44.2606C205.268 44.2447 205.174 44.2367 205.079 44.2367C204.745 44.2367 204.451 44.3442 204.197 44.5592C203.95 44.7662 203.753 45.0688 203.608 45.4669V49.5635H202.802Z" fill="white"/>
<path d="M209.074 49.671C208.551 49.671 208.075 49.5357 207.646 49.2649C207.225 48.9862 206.887 48.612 206.633 48.1422C206.386 47.6725 206.262 47.1469 206.262 46.5657C206.262 45.9924 206.382 45.4748 206.622 45.013C206.862 44.5432 207.185 44.173 207.592 43.9023C207.999 43.6236 208.453 43.4843 208.954 43.4843C209.441 43.4843 209.877 43.6236 210.262 43.9023C210.654 44.173 210.963 44.5432 211.188 45.013C211.42 45.4748 211.537 45.9924 211.537 46.5657V46.8404H207.058C207.101 47.2305 207.214 47.5809 207.396 47.8914C207.584 48.202 207.828 48.4488 208.126 48.6319C208.424 48.8071 208.75 48.8947 209.106 48.8947C209.39 48.8947 209.666 48.8469 209.935 48.7514C210.203 48.6558 210.429 48.5204 210.61 48.3453L211.112 48.9305C210.807 49.1773 210.487 49.3645 210.153 49.4919C209.826 49.6113 209.466 49.671 209.074 49.671ZM207.08 46.1357H210.73C210.687 45.7774 210.578 45.4589 210.403 45.1802C210.236 44.8936 210.026 44.6706 209.771 44.5114C209.517 44.3442 209.237 44.2606 208.932 44.2606C208.62 44.2606 208.333 44.3402 208.071 44.4995C207.81 44.6587 207.592 44.8817 207.417 45.1683C207.243 45.447 207.13 45.7695 207.08 46.1357Z" fill="white"/>
<path d="M214.788 49.683C214.337 49.683 213.912 49.6033 213.513 49.4441C213.12 49.2769 212.779 49.046 212.488 48.7514L212.979 48.1781C213.233 48.4329 213.513 48.6319 213.818 48.7752C214.123 48.9106 214.435 48.9783 214.755 48.9783C215.191 48.9783 215.547 48.8788 215.823 48.6797C216.099 48.4806 216.237 48.2219 216.237 47.9034C216.237 47.6406 216.154 47.4376 215.987 47.2942C215.827 47.143 215.572 47.0394 215.224 46.9837L214.276 46.8404C213.731 46.7528 213.324 46.5737 213.055 46.3029C212.794 46.0322 212.663 45.6659 212.663 45.2041C212.663 44.8697 212.75 44.5711 212.924 44.3084C213.099 44.0456 213.338 43.8386 213.644 43.6873C213.956 43.536 214.312 43.4604 214.712 43.4604C215.111 43.4604 215.485 43.5241 215.834 43.6515C216.183 43.7789 216.524 43.9779 216.858 44.2486L216.433 44.8458C216.128 44.6149 215.83 44.4477 215.54 44.3442C215.256 44.2327 214.966 44.177 214.668 44.177C214.29 44.177 213.985 44.2685 213.753 44.4517C213.52 44.6348 213.404 44.8737 213.404 45.1683C213.404 45.439 213.484 45.646 213.644 45.7894C213.803 45.9247 214.061 46.0203 214.417 46.076L215.365 46.2193C215.91 46.299 216.317 46.4741 216.586 46.7448C216.862 47.0156 217 47.3858 217 47.8556C217 48.198 216.902 48.5085 216.706 48.7872C216.51 49.0659 216.244 49.2848 215.91 49.4441C215.583 49.6033 215.209 49.683 214.788 49.683Z" fill="white"/>
<defs>
<radialGradient id="paint0_angular_1017_8736" cx="0" cy="0" r="1" gradientUnits="userSpaceOnUse" gradientTransform="translate(12.3497 21.2394) rotate(27.1923) scale(18.455 15.8902)">
<stop stop-color="white"/>
<stop offset="0.247838" stop-color="#C1C3F5"/>
<stop offset="0.507856" stop-color="#7A7FE7"/>
<stop offset="0.754314" stop-color="#B7B9F2"/>
<stop offset="0.894617" stop-color="white"/>
</radialGradient>
<radialGradient id="paint1_angular_1017_8736" cx="0" cy="0" r="1" gradientUnits="userSpaceOnUse" gradientTransform="translate(32.4755 21.5179) rotate(145.868) scale(17.2182 14.7011)">
<stop stop-color="white"/>
<stop offset="0.247838" stop-color="#C1C3F5"/>
<stop offset="0.507856" stop-color="#7A7FE7"/>
<stop offset="0.754314" stop-color="#B7B9F2"/>
<stop offset="0.894617" stop-color="white"/>
</radialGradient>
<radialGradient id="paint2_angular_1017_8736" cx="0" cy="0" r="1" gradientUnits="userSpaceOnUse" gradientTransform="translate(22.6262 40.4312) rotate(-89.6411) scale(18.4392 19.5297)">
<stop stop-color="white"/>
<stop offset="0.247838" stop-color="#C1C3F5"/>
<stop offset="0.507856" stop-color="#7A7FE7"/>
<stop offset="0.754314" stop-color="#B7B9F2"/>
<stop offset="0.894617" stop-color="white"/>
</radialGradient>
<clipPath id="clip0_1017_8736">
<rect width="47.5893" height="47.5893" fill="white" transform="translate(0 7.38428)"/>
</clipPath>
</defs>
</svg>
